<svg xmlns="http://www.w3.org/2000/svg" xmlns:xlink="http://www.w3.org/1999/xlink" width="500" zoomAndPan="magnify" viewBox="0 0 375 374.999991" height="500" preserveAspectRatio="xMidYMid meet" version="1.0"><defs><g/></defs><g fill="#ff00ff" fill-opacity="1"><g transform="translate(68.525633, 207.900344)"><g><path d="M 5.734375 0 C 4.585938 0 3.675781 -0.378906 3 -1.140625 C 2.332031 -1.910156 2.097656 -2.960938 2.296875 -4.296875 L 25.78125 -196.1875 C 25.96875 -197.519531 26.488281 -198.566406 27.34375 -199.328125 C 28.207031 -200.097656 29.210938 -200.484375 30.359375 -200.484375 L 74.46875 -200.484375 C 75.613281 -200.484375 76.519531 -200.097656 77.1875 -199.328125 C 77.851562 -198.566406 78.09375 -197.519531 77.90625 -196.1875 L 59.859375 -47.546875 C 59.472656 -46.585938 59.851562 -46.109375 61 -46.109375 L 115.421875 -46.109375 C 116.753906 -46.109375 117.753906 -45.722656 118.421875 -44.953125 C 119.097656 -44.191406 119.335938 -43.144531 119.140625 -41.8125 L 114.5625 -4.296875 C 113.988281 -1.429688 112.363281 0 109.6875 0 Z M 5.734375 0 "/></g></g></g><g fill="#00ffff" fill-opacity="1"><g transform="translate(42.747698, 207.900344)"><g><path d="M 5.734375 0 C 4.585938 0 3.675781 -0.378906 3 -1.140625 C 2.332031 -1.910156 2.097656 -2.960938 2.296875 -4.296875 L 25.78125 -196.1875 C 25.96875 -197.519531 26.488281 -198.566406 27.34375 -199.328125 C 28.207031 -200.097656 29.210938 -200.484375 30.359375 -200.484375 L 74.46875 -200.484375 C 75.613281 -200.484375 76.519531 -200.097656 77.1875 -199.328125 C 77.851562 -198.566406 78.09375 -197.519531 77.90625 -196.1875 L 59.859375 -47.546875 C 59.472656 -46.585938 59.851562 -46.109375 61 -46.109375 L 115.421875 -46.109375 C 116.753906 -46.109375 117.753906 -45.722656 118.421875 -44.953125 C 119.097656 -44.191406 119.335938 -43.144531 119.140625 -41.8125 L 114.5625 -4.296875 C 113.988281 -1.429688 112.363281 0 109.6875 0 Z M 5.734375 0 "/></g></g></g><g fill="#191919" fill-opacity="1"><g transform="translate(55.636666, 207.900344)"><g><path d="M 5.734375 0 C 4.585938 0 3.675781 -0.378906 3 -1.140625 C 2.332031 -1.910156 2.097656 -2.960938 2.296875 -4.296875 L 25.78125 -196.1875 C 25.96875 -197.519531 26.488281 -198.566406 27.34375 -199.328125 C 28.207031 -200.097656 29.210938 -200.484375 30.359375 -200.484375 L 74.46875 -200.484375 C 75.613281 -200.484375 76.519531 -200.097656 77.1875 -199.328125 C 77.851562 -198.566406 78.09375 -197.519531 77.90625 -196.1875 L 59.859375 -47.546875 C 59.472656 -46.585938 59.851562 -46.109375 61 -46.109375 L 115.421875 -46.109375 C 116.753906 -46.109375 117.753906 -45.722656 118.421875 -44.953125 C 119.097656 -44.191406 119.335938 -43.144531 119.140625 -41.8125 L 114.5625 -4.296875 C 113.988281 -1.429688 112.363281 0 109.6875 0 Z M 5.734375 0 "/></g></g></g><g fill="#ff00ff" fill-opacity="1"><g transform="translate(212.886978, 207.900344)"><g/></g></g><g fill="#00ffff" fill-opacity="1"><g transform="translate(187.109043, 207.900344)"><g/></g></g><g fill="#191919" fill-opacity="1"><g transform="translate(199.998012, 207.900344)"><g/></g></g><g fill="#ff00ff" fill-opacity="1"><g transform="translate(25.483886, 207.900344)"><g><path d="M 5.734375 0 C 4.585938 0 3.675781 -0.378906 3 -1.140625 C 2.332031 -1.910156 2.097656 -2.960938 2.296875 -4.296875 L 25.78125 -196.1875 C 25.96875 -197.519531 26.488281 -198.566406 27.34375 -199.328125 C 28.207031 -200.097656 29.210938 -200.484375 30.359375 -200.484375 L 74.46875 -200.484375 C 75.613281 -200.484375 76.519531 -200.097656 77.1875 -199.328125 C 77.851562 -198.566406 78.09375 -197.519531 77.90625 -196.1875 L 59.859375 -47.546875 C 59.472656 -46.585938 59.851562 -46.109375 61 -46.109375 L 115.421875 -46.109375 C 116.753906 -46.109375 117.753906 -45.722656 118.421875 -44.953125 C 119.097656 -44.191406 119.335938 -43.144531 119.140625 -41.8125 L 114.5625 -4.296875 C 113.988281 -1.429688 112.363281 0 109.6875 0 Z M 5.734375 0 "/></g></g></g><g fill="#00ffff" fill-opacity="1"><g transform="translate(-0.294049, 207.900344)"><g><path d="M 5.734375 0 C 4.585938 0 3.675781 -0.378906 3 -1.140625 C 2.332031 -1.910156 2.097656 -2.960938 2.296875 -4.296875 L 25.78125 -196.1875 C 25.96875 -197.519531 26.488281 -198.566406 27.34375 -199.328125 C 28.207031 -200.097656 29.210938 -200.484375 30.359375 -200.484375 L 74.46875 -200.484375 C 75.613281 -200.484375 76.519531 -200.097656 77.1875 -199.328125 C 77.851562 -198.566406 78.09375 -197.519531 77.90625 -196.1875 L 59.859375 -47.546875 C 59.472656 -46.585938 59.851562 -46.109375 61 -46.109375 L 115.421875 -46.109375 C 116.753906 -46.109375 117.753906 -45.722656 118.421875 -44.953125 C 119.097656 -44.191406 119.335938 -43.144531 119.140625 -41.8125 L 114.5625 -4.296875 C 113.988281 -1.429688 112.363281 0 109.6875 0 Z M 5.734375 0 "/></g></g></g><g fill="#191919" fill-opacity="1"><g transform="translate(12.594919, 207.900344)"><g><path d="M 5.734375 0 C 4.585938 0 3.675781 -0.378906 3 -1.140625 C 2.332031 -1.910156 2.097656 -2.960938 2.296875 -4.296875 L 25.78125 -196.1875 C 25.96875 -197.519531 26.488281 -198.566406 27.34375 -199.328125 C 28.207031 -200.097656 29.210938 -200.484375 30.359375 -200.484375 L 74.46875 -200.484375 C 75.613281 -200.484375 76.519531 -200.097656 77.1875 -199.328125 C 77.851562 -198.566406 78.09375 -197.519531 77.90625 -196.1875 L 59.859375 -47.546875 C 59.472656 -46.585938 59.851562 -46.109375 61 -46.109375 L 115.421875 -46.109375 C 116.753906 -46.109375 117.753906 -45.722656 118.421875 -44.953125 C 119.097656 -44.191406 119.335938 -43.144531 119.140625 -41.8125 L 114.5625 -4.296875 C 113.988281 -1.429688 112.363281 0 109.6875 0 Z M 5.734375 0 "/></g></g></g><g fill="#ff00ff" fill-opacity="1"><g transform="translate(169.845231, 207.900344)"><g/></g></g><g fill="#00ffff" fill-opacity="1"><g transform="translate(144.067296, 207.900344)"><g/></g></g><g fill="#191919" fill-opacity="1"><g transform="translate(156.956264, 207.900344)"><g/></g></g><g fill="#ff00ff" fill-opacity="1"><g transform="translate(178.661551, 351.408656)"><g><path d="M 117.71875 -197.328125 C 118.863281 -199.429688 120.582031 -200.484375 122.875 -200.484375 L 166.40625 -200.484375 C 167.550781 -200.484375 168.457031 -200.097656 169.125 -199.328125 C 169.789062 -198.566406 170.03125 -197.519531 169.84375 -196.1875 L 146.359375 -4.296875 C 146.160156 -2.960938 145.628906 -1.910156 144.765625 -1.140625 C 143.910156 -0.378906 142.910156 0 141.765625 0 L 97.671875 0 C 96.523438 0 95.613281 -0.378906 94.9375 -1.140625 C 94.269531 -1.910156 94.035156 -2.960938 94.234375 -4.296875 L 108.546875 -121.4375 C 108.734375 -122.195312 108.585938 -122.625 108.109375 -122.71875 C 107.640625 -122.820312 107.210938 -122.585938 106.828125 -122.015625 L 87.359375 -93.9375 L 83.921875 -88.78125 L 83.625 -88.78125 L 69.03125 -122.015625 C 68.832031 -122.585938 68.539062 -122.820312 68.15625 -122.71875 C 67.78125 -122.625 67.5 -122.195312 67.3125 -121.4375 L 52.984375 -4.296875 C 52.796875 -2.960938 52.316406 -1.910156 51.546875 -1.140625 C 50.785156 -0.378906 49.738281 0 48.40625 0 L 4.578125 0 C 3.242188 0 2.242188 -0.378906 1.578125 -1.140625 C 0.910156 -1.910156 0.671875 -2.960938 0.859375 -4.296875 L 24.34375 -196.1875 C 24.53125 -197.519531 25.050781 -198.566406 25.90625 -199.328125 C 26.769531 -200.097656 27.773438 -200.484375 28.921875 -200.484375 L 72.453125 -200.484375 C 74.742188 -200.484375 76.273438 -199.429688 77.046875 -197.328125 L 92.21875 -160.09375 C 92.601562 -159.332031 93.175781 -159.332031 93.9375 -160.09375 Z M 117.71875 -197.328125 "/></g></g></g><g fill="#00ffff" fill-opacity="1"><g transform="translate(152.883614, 351.408656)"><g><path d="M 117.71875 -197.328125 C 118.863281 -199.429688 120.582031 -200.484375 122.875 -200.484375 L 166.40625 -200.484375 C 167.550781 -200.484375 168.457031 -200.097656 169.125 -199.328125 C 169.789062 -198.566406 170.03125 -197.519531 169.84375 -196.1875 L 146.359375 -4.296875 C 146.160156 -2.960938 145.628906 -1.910156 144.765625 -1.140625 C 143.910156 -0.378906 142.910156 0 141.765625 0 L 97.671875 0 C 96.523438 0 95.613281 -0.378906 94.9375 -1.140625 C 94.269531 -1.910156 94.035156 -2.960938 94.234375 -4.296875 L 108.546875 -121.4375 C 108.734375 -122.195312 108.585938 -122.625 108.109375 -122.71875 C 107.640625 -122.820312 107.210938 -122.585938 106.828125 -122.015625 L 87.359375 -93.9375 L 83.921875 -88.78125 L 83.625 -88.78125 L 69.03125 -122.015625 C 68.832031 -122.585938 68.539062 -122.820312 68.15625 -122.71875 C 67.78125 -122.625 67.5 -122.195312 67.3125 -121.4375 L 52.984375 -4.296875 C 52.796875 -2.960938 52.316406 -1.910156 51.546875 -1.140625 C 50.785156 -0.378906 49.738281 0 48.40625 0 L 4.578125 0 C 3.242188 0 2.242188 -0.378906 1.578125 -1.140625 C 0.910156 -1.910156 0.671875 -2.960938 0.859375 -4.296875 L 24.34375 -196.1875 C 24.53125 -197.519531 25.050781 -198.566406 25.90625 -199.328125 C 26.769531 -200.097656 27.773438 -200.484375 28.921875 -200.484375 L 72.453125 -200.484375 C 74.742188 -200.484375 76.273438 -199.429688 77.046875 -197.328125 L 92.21875 -160.09375 C 92.601562 -159.332031 93.175781 -159.332031 93.9375 -160.09375 Z M 117.71875 -197.328125 "/></g></g></g><g fill="#191919" fill-opacity="1"><g transform="translate(165.772582, 351.408656)"><g><path d="M 117.71875 -197.328125 C 118.863281 -199.429688 120.582031 -200.484375 122.875 -200.484375 L 166.40625 -200.484375 C 167.550781 -200.484375 168.457031 -200.097656 169.125 -199.328125 C 169.789062 -198.566406 170.03125 -197.519531 169.84375 -196.1875 L 146.359375 -4.296875 C 146.160156 -2.960938 145.628906 -1.910156 144.765625 -1.140625 C 143.910156 -0.378906 142.910156 0 141.765625 0 L 97.671875 0 C 96.523438 0 95.613281 -0.378906 94.9375 -1.140625 C 94.269531 -1.910156 94.035156 -2.960938 94.234375 -4.296875 L 108.546875 -121.4375 C 108.734375 -122.195312 108.585938 -122.625 108.109375 -122.71875 C 107.640625 -122.820312 107.210938 -122.585938 106.828125 -122.015625 L 87.359375 -93.9375 L 83.921875 -88.78125 L 83.625 -88.78125 L 69.03125 -122.015625 C 68.832031 -122.585938 68.539062 -122.820312 68.15625 -122.71875 C 67.78125 -122.625 67.5 -122.195312 67.3125 -121.4375 L 52.984375 -4.296875 C 52.796875 -2.960938 52.316406 -1.910156 51.546875 -1.140625 C 50.785156 -0.378906 49.738281 0 48.40625 0 L 4.578125 0 C 3.242188 0 2.242188 -0.378906 1.578125 -1.140625 C 0.910156 -1.910156 0.671875 -2.960938 0.859375 -4.296875 L 24.34375 -196.1875 C 24.53125 -197.519531 25.050781 -198.566406 25.90625 -199.328125 C 26.769531 -200.097656 27.773438 -200.484375 28.921875 -200.484375 L 72.453125 -200.484375 C 74.742188 -200.484375 76.273438 -199.429688 77.046875 -197.328125 L 92.21875 -160.09375 C 92.601562 -159.332031 93.175781 -159.332031 93.9375 -160.09375 Z M 117.71875 -197.328125 "/></g></g></g><g fill="#ff00ff" fill-opacity="1"><g transform="translate(200.005129, 366.045593)"><g><path d="M 117.71875 -197.328125 C 118.863281 -199.429688 120.582031 -200.484375 122.875 -200.484375 L 166.40625 -200.484375 C 167.550781 -200.484375 168.457031 -200.097656 169.125 -199.328125 C 169.789062 -198.566406 170.03125 -197.519531 169.84375 -196.1875 L 146.359375 -4.296875 C 146.160156 -2.960938 145.628906 -1.910156 144.765625 -1.140625 C 143.910156 -0.378906 142.910156 0 141.765625 0 L 97.671875 0 C 96.523438 0 95.613281 -0.378906 94.9375 -1.140625 C 94.269531 -1.910156 94.035156 -2.960938 94.234375 -4.296875 L 108.546875 -121.4375 C 108.734375 -122.195312 108.585938 -122.625 108.109375 -122.71875 C 107.640625 -122.820312 107.210938 -122.585938 106.828125 -122.015625 L 87.359375 -93.9375 L 83.921875 -88.78125 L 83.625 -88.78125 L 69.03125 -122.015625 C 68.832031 -122.585938 68.539062 -122.820312 68.15625 -122.71875 C 67.78125 -122.625 67.5 -122.195312 67.3125 -121.4375 L 52.984375 -4.296875 C 52.796875 -2.960938 52.316406 -1.910156 51.546875 -1.140625 C 50.785156 -0.378906 49.738281 0 48.40625 0 L 4.578125 0 C 3.242188 0 2.242188 -0.378906 1.578125 -1.140625 C 0.910156 -1.910156 0.671875 -2.960938 0.859375 -4.296875 L 24.34375 -196.1875 C 24.53125 -197.519531 25.050781 -198.566406 25.90625 -199.328125 C 26.769531 -200.097656 27.773438 -200.484375 28.921875 -200.484375 L 72.453125 -200.484375 C 74.742188 -200.484375 76.273438 -199.429688 77.046875 -197.328125 L 92.21875 -160.09375 C 92.601562 -159.332031 93.175781 -159.332031 93.9375 -160.09375 Z M 117.71875 -197.328125 "/></g></g></g><g fill="#00ffff" fill-opacity="1"><g transform="translate(174.227191, 366.045593)"><g><path d="M 117.71875 -197.328125 C 118.863281 -199.429688 120.582031 -200.484375 122.875 -200.484375 L 166.40625 -200.484375 C 167.550781 -200.484375 168.457031 -200.097656 169.125 -199.328125 C 169.789062 -198.566406 170.03125 -197.519531 169.84375 -196.1875 L 146.359375 -4.296875 C 146.160156 -2.960938 145.628906 -1.910156 144.765625 -1.140625 C 143.910156 -0.378906 142.910156 0 141.765625 0 L 97.671875 0 C 96.523438 0 95.613281 -0.378906 94.9375 -1.140625 C 94.269531 -1.910156 94.035156 -2.960938 94.234375 -4.296875 L 108.546875 -121.4375 C 108.734375 -122.195312 108.585938 -122.625 108.109375 -122.71875 C 107.640625 -122.820312 107.210938 -122.585938 106.828125 -122.015625 L 87.359375 -93.9375 L 83.921875 -88.78125 L 83.625 -88.78125 L 69.03125 -122.015625 C 68.832031 -122.585938 68.539062 -122.820312 68.15625 -122.71875 C 67.78125 -122.625 67.5 -122.195312 67.3125 -121.4375 L 52.984375 -4.296875 C 52.796875 -2.960938 52.316406 -1.910156 51.546875 -1.140625 C 50.785156 -0.378906 49.738281 0 48.40625 0 L 4.578125 0 C 3.242188 0 2.242188 -0.378906 1.578125 -1.140625 C 0.910156 -1.910156 0.671875 -2.960938 0.859375 -4.296875 L 24.34375 -196.1875 C 24.53125 -197.519531 25.050781 -198.566406 25.90625 -199.328125 C 26.769531 -200.097656 27.773438 -200.484375 28.921875 -200.484375 L 72.453125 -200.484375 C 74.742188 -200.484375 76.273438 -199.429688 77.046875 -197.328125 L 92.21875 -160.09375 C 92.601562 -159.332031 93.175781 -159.332031 93.9375 -160.09375 Z M 117.71875 -197.328125 "/></g></g></g><g fill="#191919" fill-opacity="1"><g transform="translate(187.11616, 366.045593)"><g><path d="M 117.71875 -197.328125 C 118.863281 -199.429688 120.582031 -200.484375 122.875 -200.484375 L 166.40625 -200.484375 C 167.550781 -200.484375 168.457031 -200.097656 169.125 -199.328125 C 169.789062 -198.566406 170.03125 -197.519531 169.84375 -196.1875 L 146.359375 -4.296875 C 146.160156 -2.960938 145.628906 -1.910156 144.765625 -1.140625 C 143.910156 -0.378906 142.910156 0 141.765625 0 L 97.671875 0 C 96.523438 0 95.613281 -0.378906 94.9375 -1.140625 C 94.269531 -1.910156 94.035156 -2.960938 94.234375 -4.296875 L 108.546875 -121.4375 C 108.734375 -122.195312 108.585938 -122.625 108.109375 -122.71875 C 107.640625 -122.820312 107.210938 -122.585938 106.828125 -122.015625 L 87.359375 -93.9375 L 83.921875 -88.78125 L 83.625 -88.78125 L 69.03125 -122.015625 C 68.832031 -122.585938 68.539062 -122.820312 68.15625 -122.71875 C 67.78125 -122.625 67.5 -122.195312 67.3125 -121.4375 L 52.984375 -4.296875 C 52.796875 -2.960938 52.316406 -1.910156 51.546875 -1.140625 C 50.785156 -0.378906 49.738281 0 48.40625 0 L 4.578125 0 C 3.242188 0 2.242188 -0.378906 1.578125 -1.140625 C 0.910156 -1.910156 0.671875 -2.960938 0.859375 -4.296875 L 24.34375 -196.1875 C 24.53125 -197.519531 25.050781 -198.566406 25.90625 -199.328125 C 26.769531 -200.097656 27.773438 -200.484375 28.921875 -200.484375 L 72.453125 -200.484375 C 74.742188 -200.484375 76.273438 -199.429688 77.046875 -197.328125 L 92.21875 -160.09375 C 92.601562 -159.332031 93.175781 -159.332031 93.9375 -160.09375 Z M 117.71875 -197.328125 "/></g></g></g></svg>